#Comment line ignore any data following # character 
#Hierarchical Translation and Rotation (.htr) file 
[Header]	
#Header keywords are followed by a single value 
FileType HTR		#Single word string
DataType HTRS		#Translation followed by rotation and scale data
FileVersion 1		#integer
NumSegments 64		#integer
NumFrames 3		#integer
DataFrameRate 30		#integer, data frame rate in this file
EulerRotationOrder ZYX
CalibrationUnits mm
RotationUnits Degrees
GlobalAxisofGravity Y
BoneLengthAxis Y
ScaleFactor 1.00
[SegmentNames&Hierarchy]
#CHILD	PARENT
Pinger_Root GLOBAL
Pelvis Pinger_Root
L_Hip Pelvis
R_Hip Pelvis
Rear_Leg01 Pelvis
Spine1 Pelvis
L_Leg01 L_Hip
L_Leg02 L_Leg01
L_Leg03 L_Leg02
L_Foot L_Leg03
L_Toe1_01 L_Foot
L_Toe2_01 L_Foot
L_Toe3_01 L_Foot
planeAlignerLeft L_Foot
L_Toe1_02 L_Toe1_01
L_Toe1_03 L_Toe1_02
L_Toe2_02 L_Toe2_01
L_Toe2_03 L_Toe2_02
L_Toe3_02 L_Toe3_01
L_Toe3_03 L_Toe3_02
planeLockWeightLeft planeAlignerLeft
R_Leg01 R_Hip
R_Leg02 R_Leg01
R_Leg03 R_Leg02
R_Foot R_Leg03
planeAlignerRight R_Foot
R_Toe1_01 R_Foot
R_Toe2_01 R_Foot
R_Toe3_01 R_Foot
planeLockWeightRight planeAlignerRight
R_Toe1_02 R_Toe1_01
R_Toe1_03 R_Toe1_02
R_Toe2_02 R_Toe2_01
R_Toe2_03 R_Toe2_02
R_Toe3_02 R_Toe3_01
R_Toe3_03 R_Toe3_02
Rear_Leg02 Rear_Leg01
Rear_Leg03 Rear_Leg02
Rear_Leg04 Rear_Leg03
Rear_Foot Rear_Leg04
planeAlignerCenter Rear_Foot
Rear_Toe1_01 Rear_Foot
Rear_Toe2_01 Rear_Foot
Rear_Toe3_01 Rear_Foot
planeLockWeightCenter planeAlignerCenter
Rear_Toe1_02 Rear_Toe1_01
Rear_Toe1_03 Rear_Toe1_02
Rear_Toe2_02 Rear_Toe2_01
Rear_Toe2_03 Rear_Toe2_02
Rear_Toe3_02 Rear_Toe3_01
Rear_Toe3_03 Rear_Toe3_02
Back_Bone Spine1
Head Spine1
Motor_Bone Back_Bone
Ping_Mechanism Back_Bone
BN_LookIK Head
bottomMouth Head
L_Mouth01 Head
L_mouthFront Head
mouthGun Head
R_Mouth01 Head
R_mouthFront Head
TopMouth Head
weapon_bone Head
[BasePosition]
#SegmentName Tx, Ty, Tz, Rx, Ry, Rz, BoneLength
Pinger_Root 0.000000 0.000000 0.000000 -90.000000 0.000000 0.000000 10.000000 
Pelvis 0.000000 0.000000 0.000000 0.000000 0.000000 0.000000 10.000000 
L_Hip 0.000000 0.000000 0.000000 0.000000 0.000000 0.000000 10.000000 
R_Hip 0.000000 0.000000 0.000000 0.000000 0.000000 0.000000 10.000000 
Rear_Leg01 0.000000 0.000000 0.000000 0.000000 0.000000 0.000000 10.000000 
Spine1 0.000000 0.000000 0.000000 0.000000 0.000000 0.000000 10.000000 
L_Leg01 0.000000 0.000000 0.000000 0.000000 0.000000 0.000000 10.000000 
L_Leg02 0.000000 0.000000 0.000000 0.000000 0.000000 0.000000 10.000000 
L_Leg03 0.000000 0.000000 0.000000 0.000000 0.000000 0.000000 10.000000 
L_Foot 0.000000 0.000000 0.000000 0.000000 0.000000 0.000000 10.000000 
L_Toe1_01 0.000000 0.000000 0.000000 0.000000 0.000000 0.000000 10.000000 
L_Toe2_01 0.000000 0.000000 0.000000 0.000000 0.000000 0.000000 10.000000 
L_Toe3_01 0.000000 0.000000 0.000000 0.000000 0.000000 0.000000 10.000000 
planeAlignerLeft 0.000000 0.000000 0.000000 0.000000 0.000000 0.000000 10.000000 
L_Toe1_02 0.000000 0.000000 0.000000 0.000000 0.000000 0.000000 10.000000 
L_Toe1_03 0.000000 0.000000 0.000000 0.000000 0.000000 0.000000 10.000000 
L_Toe2_02 0.000000 0.000000 0.000000 0.000000 0.000000 0.000000 10.000000 
L_Toe2_03 0.000000 0.000000 0.000000 0.000000 0.000000 0.000000 10.000000 
L_Toe3_02 0.000000 0.000000 0.000000 0.000000 0.000000 0.000000 10.000000 
L_Toe3_03 0.000000 0.000000 0.000000 0.000000 0.000000 0.000000 10.000000 
planeLockWeightLeft 0.000000 0.000000 0.000000 0.000000 0.000000 0.000000 10.000000 
R_Leg01 0.000000 0.000000 0.000000 0.000000 0.000000 0.000000 10.000000 
R_Leg02 0.000000 0.000000 0.000000 0.000000 0.000000 0.000000 10.000000 
R_Leg03 0.000000 0.000000 0.000000 0.000000 0.000000 0.000000 10.000000 
R_Foot 0.000000 0.000000 0.000000 0.000000 0.000000 0.000000 10.000000 
planeAlignerRight 0.000000 0.000000 0.000000 0.000000 0.000000 0.000000 10.000000 
R_Toe1_01 0.000000 0.000000 0.000000 0.000000 0.000000 0.000000 10.000000 
R_Toe2_01 0.000000 0.000000 0.000000 0.000000 0.000000 0.000000 10.000000 
R_Toe3_01 0.000000 0.000000 0.000000 0.000000 0.000000 0.000000 10.000000 
planeLockWeightRight 0.000000 0.000000 0.000000 0.000000 0.000000 0.000000 10.000000 
R_Toe1_02 0.000000 0.000000 0.000000 0.000000 0.000000 0.000000 10.000000 
R_Toe1_03 0.000000 0.000000 0.000000 0.000000 0.000000 0.000000 10.000000 
R_Toe2_02 0.000000 0.000000 0.000000 0.000000 0.000000 0.000000 10.000000 
R_Toe2_03 0.000000 0.000000 0.000000 0.000000 0.000000 0.000000 10.000000 
R_Toe3_02 0.000000 0.000000 0.000000 0.000000 0.000000 0.000000 10.000000 
R_Toe3_03 0.000000 0.000000 0.000000 0.000000 0.000000 0.000000 10.000000 
Rear_Leg02 0.000000 0.000000 0.000000 0.000000 0.000000 0.000000 10.000000 
Rear_Leg03 0.000000 0.000000 0.000000 0.000000 0.000000 0.000000 10.000000 
Rear_Leg04 0.000000 0.000000 0.000000 0.000000 0.000000 0.000000 10.000000 
Rear_Foot 0.000000 0.000000 0.000000 0.000000 0.000000 0.000000 10.000000 
planeAlignerCenter 0.000000 0.000000 0.000000 0.000000 0.000000 0.000000 10.000000 
Rear_Toe1_01 0.000000 0.000000 0.000000 0.000000 0.000000 0.000000 10.000000 
Rear_Toe2_01 0.000000 0.000000 0.000000 0.000000 0.000000 0.000000 10.000000 
Rear_Toe3_01 0.000000 0.000000 0.000000 0.000000 0.000000 0.000000 10.000000 
planeLockWeightCenter 0.000000 0.000000 0.000000 0.000000 0.000000 0.000000 10.000000 
Rear_Toe1_02 0.000000 0.000000 0.000000 0.000000 0.000000 0.000000 10.000000 
Rear_Toe1_03 0.000000 0.000000 0.000000 0.000000 0.000000 0.000000 10.000000 
Rear_Toe2_02 0.000000 0.000000 0.000000 0.000000 0.000000 0.000000 10.000000 
Rear_Toe2_03 0.000000 0.000000 0.000000 0.000000 0.000000 0.000000 10.000000 
Rear_Toe3_02 0.000000 0.000000 0.000000 0.000000 0.000000 0.000000 10.000000 
Rear_Toe3_03 0.000000 0.000000 0.000000 0.000000 0.000000 0.000000 10.000000 
Back_Bone 0.000000 0.000000 0.000000 0.000000 0.000000 0.000000 10.000000 
Head 0.000000 0.000000 0.000000 0.000000 0.000000 0.000000 10.000000 
Motor_Bone 0.000000 0.000000 0.000000 0.000000 0.000000 0.000000 10.000000 
Ping_Mechanism 0.000000 0.000000 0.000000 0.000000 0.000000 0.000000 10.000000 
BN_LookIK 0.000000 0.000000 0.000000 0.000000 0.000000 0.000000 10.000000 
bottomMouth 0.000000 0.000000 0.000000 0.000000 0.000000 0.000000 10.000000 
L_Mouth01 0.000000 0.000000 0.000000 0.000000 0.000000 0.000000 10.000000 
L_mouthFront 0.000000 0.000000 0.000000 0.000000 0.000000 0.000000 10.000000 
mouthGun 0.000000 0.000000 0.000000 0.000000 0.000000 0.000000 10.000000 
R_Mouth01 0.000000 0.000000 0.000000 0.000000 0.000000 0.000000 10.000000 
R_mouthFront 0.000000 0.000000 0.000000 0.000000 0.000000 0.000000 10.000000 
TopMouth 0.000000 0.000000 0.000000 0.000000 0.000000 0.000000 10.000000 
weapon_bone 0.000000 0.000000 0.000000 0.000000 0.000000 0.000000 10.000000 
#Beginning of Data. Separated by tabs
#Fr	Tx	Ty	Tz	Rx	Ry	Rz	SF
[Pinger_Root]
57 0.000000 0.000000 0.000000 -0.000075 -0.000000 -0.000020 0.000000
58 0.000000 0.000000 0.000000 -0.000075 -0.000000 -0.000020 0.000000
59 0.000000 0.000000 0.000000 -0.000075 -0.000000 -0.000020 0.000000
[Pelvis]
57 -433.166351 820.289978 3287.938965 18.576008 -77.689987 -30.253456 3416.292236
58 -433.166351 821.806030 3287.023438 18.462683 -77.703522 -30.142929 3415.775391
59 -433.166351 823.322144 3286.108154 18.349123 -77.717010 -30.032167 3415.260010
[L_Hip]
57 5.766392 125.831482 872.656799 -170.530411 -57.268463 91.314774 881.701050
58 5.766392 125.831482 872.656799 -170.529922 -57.269028 91.313904 881.701050
59 5.766392 125.831482 872.656799 -170.529434 -57.269619 91.313049 881.701050
[R_Hip]
57 5.765438 125.836372 -872.654907 -20.283619 57.253277 56.260845 881.699829
58 5.765438 125.836372 -872.654907 -20.284184 57.253796 56.260567 881.699829
59 5.765438 125.836372 -872.654907 -20.284750 57.254311 56.260296 881.699829
[Rear_Leg01]
57 -192.298416 -925.602966 -0.001907 -164.972366 19.235161 -97.220787 945.367432
58 -192.298416 -925.602966 -0.001907 -164.955368 19.215359 -97.203171 945.367432
59 -192.298416 -925.602966 -0.001907 -164.938370 19.195553 -97.185547 945.367432
[Spine1]
57 290.604584 5.007505 0.000477 10.125380 -13.767248 15.924215 290.647736
58 290.604584 5.007505 0.000477 10.125129 -13.767577 15.924600 290.647736
59 290.604584 5.007505 0.000477 10.124882 -13.767912 15.924993 290.647736
[L_Leg01]
57 761.932007 -0.002384 -0.069261 44.883976 29.261808 -106.506104 761.932068
58 761.932007 -0.002384 -0.069261 44.350948 29.045534 -106.367218 761.932068
59 761.932007 -0.002384 -0.069261 43.818371 28.830368 -106.226349 761.932068
[L_Leg02]
57 1441.140503 -0.000954 -0.000715 13.861247 2.551161 -45.001926 1441.140503
58 1441.140503 -0.000954 -0.000715 14.193802 2.799873 -46.025043 1441.140503
59 1441.140503 -0.000954 -0.000715 14.521957 3.054497 -47.047005 1441.140503
[L_Leg03]
57 1686.963989 -0.000715 -0.000954 -0.091731 0.051160 134.910889 1686.963989
58 1686.963989 -0.000715 -0.000954 -0.093809 0.050594 135.376755 1686.963989
59 1686.963989 -0.000715 -0.000954 -0.096178 0.052727 136.024353 1686.963989
[L_Foot]
57 3041.570068 -30.715107 11.297464 7.441231 36.470089 43.137379 3041.746094
58 3041.570068 -30.715107 11.297464 7.479181 36.070522 43.294662 3041.746094
59 3041.570068 -30.715107 11.297464 7.515591 35.670876 43.450836 3041.746094
[L_Toe1_01]
57 -188.216690 -224.732346 -21.137953 95.036560 -10.936356 175.581650 293.899567
58 -188.216690 -224.732346 -21.137953 94.985405 -11.052722 176.282608 293.899567
59 -188.216690 -224.732346 -21.137953 94.932770 -11.168466 176.983978 293.899567
[L_Toe2_01]
57 200.746536 -219.926590 148.838394 -92.130531 -34.132206 -41.956127 332.896027
58 200.746536 -219.926590 148.838394 -91.778267 -34.113091 -42.781200 332.896027
59 200.746536 -219.926590 148.838394 -91.426491 -34.089798 -43.605927 332.896027
[L_Toe3_01]
57 188.832520 -219.859131 -191.078659 -96.090622 13.221282 -50.555386 347.140900
58 188.832520 -219.859131 -191.078659 -96.235695 12.913052 -51.500561 347.140900
59 188.832520 -219.859131 -191.078659 -96.375366 12.602499 -52.443813 347.140900
[planeAlignerLeft]
57 0.812531 -811.448792 -0.314951 0.000000 -90.000000 -90.001900 811.449280
58 0.812531 -811.448792 -0.314951 0.000000 -90.000000 -90.001900 811.449280
59 0.812531 -811.448792 -0.314951 0.000000 -90.000000 -90.001900 811.449280
[L_Toe1_02]
57 413.761139 0.000477 0.000000 0.000203 -25.410625 -0.000182 413.761139
58 413.761139 0.000477 0.000000 0.000203 -25.410625 -0.000182 413.761139
59 413.761139 0.000477 0.000000 0.000203 -25.410625 -0.000182 413.761139
[L_Toe1_03]
57 464.317322 0.000358 -0.000089 0.005155 63.680367 0.005155 464.317322
58 464.317322 0.000358 -0.000089 0.005054 63.143284 0.005054 464.317322
59 464.317322 0.000358 -0.000089 0.004956 62.606239 0.004956 464.317322
[L_Toe2_02]
57 342.235809 -0.000477 0.000238 0.001188 -72.432159 0.001188 342.235809
58 342.235809 -0.000477 0.000238 0.001188 -72.183235 0.001188 342.235809
59 342.235809 -0.000477 0.000238 0.001188 -71.934296 0.001188 342.235809
[L_Toe2_03]
57 420.210846 -0.000715 0.000000 0.002141 85.522888 0.004240 420.210846
58 420.210846 -0.000715 0.000000 0.009918 84.879295 0.011318 420.210846
59 420.210846 -0.000715 0.000000 0.016037 84.235542 0.016737 420.210846
[L_Toe3_02]
57 329.270111 0.000954 0.000000 0.003676 -83.897675 0.003676 329.270111
58 329.270111 0.000954 0.000000 0.003426 -83.822289 0.003426 329.270111
59 329.270111 0.000954 0.000000 0.003176 -83.746811 0.003176 329.270111
[L_Toe3_03]
57 439.137451 -0.001907 0.000954 179.991928 59.317291 179.999191 439.137451
58 439.137451 -0.001907 0.000954 179.991837 60.057178 179.999084 439.137451
59 439.137451 -0.001907 0.000954 179.991730 60.797043 179.998962 439.137451
[planeLockWeightLeft]
57 -0.000954 0.000238 -0.000305 -0.011826 -0.004376 0.005620 0.001029
58 -0.000954 0.000238 -0.000305 -0.011826 -0.004376 0.005620 0.001029
59 -0.000954 0.000238 -0.000305 -0.011826 -0.004376 0.005620 0.001029
[R_Leg01]
57 761.455627 -0.001907 -0.000358 81.435768 12.575064 105.207100 761.455688
58 761.455627 -0.001907 -0.000358 82.472351 12.201397 105.378830 761.455688
59 761.455627 -0.001907 -0.000358 83.506325 11.824759 105.543373 761.455688
[R_Leg02]
57 1441.140625 0.000000 -0.000238 29.984438 19.234316 -105.859978 1441.140625
58 1441.140625 0.000000 -0.000238 29.962975 19.289404 -106.038322 1441.140625
59 1441.140625 0.000000 -0.000238 29.941309 19.344421 -106.216759 1441.140625
[R_Leg03]
57 1686.963989 0.000954 0.001431 0.155006 -0.106363 152.514313 1686.963989
58 1686.963989 0.000954 0.001431 0.154910 -0.106503 152.617813 1686.963989
59 1686.963989 0.000954 0.001431 0.154813 -0.106643 152.721298 1686.963989
[R_Foot]
57 3041.560059 -30.531288 -11.204481 28.963606 -32.759014 23.398199 3041.734131
58 3041.560059 -30.531288 -11.204481 28.352814 -31.903606 24.098587 3041.734131
59 3041.560059 -30.531288 -11.204481 27.759851 -31.042028 24.781898 3041.734131
[planeAlignerRight]
57 -0.635147 -812.270569 -0.364304 0.000000 -89.960434 -90.005180 812.270874
58 -0.635147 -812.270569 -0.364304 0.000000 -89.960434 -90.005180 812.270874
59 -0.635147 -812.270569 -0.364304 0.000000 -89.960434 -90.005180 812.270874
[R_Toe1_01]
57 -188.383347 -224.864899 21.052242 90.575348 8.462501 175.364456 294.101532
58 -188.383347 -224.864899 21.052242 90.575348 8.462499 175.364456 294.101532
59 -188.383347 -224.864899 21.052242 90.575348 8.462501 175.364456 294.101532
[R_Toe2_01]
57 200.637817 -220.002121 -148.787384 -82.261208 10.458311 -29.564466 332.857574
58 200.637817 -220.002121 -148.787384 -82.261269 10.458323 -29.564444 332.857574
59 200.637817 -220.002121 -148.787384 -82.261307 10.458341 -29.564417 332.857574
[R_Toe3_01]
57 188.606735 -220.092957 191.126343 -69.666290 -41.491398 -42.966209 347.192566
58 188.606735 -220.092957 191.126343 -69.666275 -41.491428 -42.966187 347.192566
59 188.606735 -220.092957 191.126343 -69.666275 -41.491463 -42.966167 347.192566
[planeLockWeightRight]
57 -0.000477 0.000000 0.000000 -0.011823 -0.004379 -0.000027 0.000477
58 -0.000477 0.000000 0.000000 -0.011823 -0.004379 -0.000027 0.000477
59 -0.000477 0.000000 0.000000 -0.011823 -0.004379 -0.000027 0.000477
[R_Toe1_02]
57 413.762085 0.000477 -0.000119 0.001409 -22.841843 0.001409 413.762085
58 413.762085 0.000477 -0.000119 0.001409 -22.841068 0.001409 413.762085
59 413.762085 0.000477 -0.000119 0.001409 -22.840290 0.001409 413.762085
[R_Toe1_03]
57 464.317810 0.000000 0.001088 0.012352 79.095764 0.012352 464.317810
58 464.317810 0.000000 0.001088 0.012352 79.095695 0.012352 464.317810
59 464.317810 0.000000 0.001088 0.012352 79.095627 0.012352 464.317810
[R_Toe2_02]
57 342.234741 -0.000954 0.000238 0.001192 -69.583321 0.001192 342.234741
58 342.234741 -0.000954 0.000238 0.001192 -69.583290 0.001192 342.234741
59 342.234741 -0.000954 0.000238 0.001192 -69.583321 0.001192 342.234741
[R_Toe2_03]
57 420.210846 0.000715 -0.000268 0.011859 78.640640 0.011859 420.210846
58 420.210846 0.000715 -0.000268 0.011859 78.640656 0.011859 420.210846
59 420.210846 0.000715 -0.000268 0.011859 78.640778 0.011859 420.210846
[R_Toe3_02]
57 329.270355 -0.000477 -0.000954 0.001179 -79.434776 0.001179 329.270355
58 329.270355 -0.000477 -0.000954 0.001179 -79.434776 0.001179 329.270355
59 329.270355 -0.000477 -0.000954 0.001179 -79.434776 0.001179 329.270355
[R_Toe3_03]
57 439.137939 0.000238 0.001431 -179.993027 82.446205 -179.989532 439.137939
58 439.137939 0.000238 0.001431 -179.993027 82.446175 -179.989532 439.137939
59 439.137939 0.000238 0.001431 -179.993027 82.446068 -179.989532 439.137939
[Rear_Leg02]
57 1162.777710 -0.029802 0.005960 -34.497639 16.737747 -116.757622 1162.777710
58 1162.777710 -0.029802 0.005960 -34.246120 16.688387 -116.621742 1162.777710
59 1162.777710 -0.029802 0.005960 -33.994781 16.638449 -116.486115 1162.777710
[Rear_Leg03]
57 607.192505 -0.013351 -0.073195 0.009989 -0.006031 78.604614 607.192505
58 607.192505 -0.013351 -0.073195 0.009990 -0.006030 78.584282 607.192505
59 607.192505 -0.013351 -0.073195 0.009991 -0.006028 78.563965 607.192505
[Rear_Leg04]
57 995.874512 -0.020504 -0.011921 -0.043955 -0.015253 95.882912 995.874573
58 995.874512 -0.020504 -0.011921 -0.043967 -0.015220 95.969505 995.874573
59 995.874512 -0.020504 -0.011921 -0.043955 -0.015253 95.882828 995.874573
[Rear_Foot]
57 3096.176270 -0.067472 -0.041425 58.362862 50.093136 -123.998589 3096.176270
58 3096.176270 -0.067472 -0.041425 58.324249 50.328171 -124.046608 3096.176270
59 3096.176270 -0.067472 -0.041425 58.285141 50.563175 -124.095100 3096.176270
[planeAlignerCenter]
57 0.350077 0.966311 -838.790894 0.000009 0.000003 -179.999985 838.791565
58 0.350077 0.966311 -838.790894 0.000009 0.000003 -179.999985 838.791565
59 0.350077 0.966311 -838.790894 0.000009 0.000003 -179.999985 838.791565
[Rear_Toe1_01]
57 0.653352 83.966492 -371.173737 5.375746 30.426622 103.609032 380.553192
58 0.653352 83.966492 -371.173737 5.375668 30.426001 103.609055 380.553192
59 0.653352 83.966492 -371.173737 5.375592 30.425367 103.609077 380.553192
[Rear_Toe2_01]
57 178.200760 -294.826019 -362.060547 -8.739378 22.917898 -73.396370 499.765686
58 178.200760 -294.826019 -362.060547 -8.739348 22.917307 -73.396347 499.765686
59 178.200760 -294.826019 -362.060547 -8.739320 22.916719 -73.396339 499.765686
[Rear_Toe3_01]
57 -153.359680 -308.780914 -362.060852 3.784964 19.464918 -119.570908 499.952881
58 -153.359680 -308.780914 -362.060852 3.785184 19.464346 -119.570877 499.952881
59 -153.359680 -308.780914 -362.060852 3.785407 19.463778 -119.570862 499.952881
[planeLockWeightCenter]
57 -0.000062 0.000238 0.000000 -0.011814 -0.004373 -0.000015 0.000246
58 -0.000062 0.000238 0.000000 -0.011814 -0.004373 -0.000015 0.000246
59 -0.000062 0.000238 0.000000 -0.011814 -0.004373 -0.000015 0.000246
[Rear_Toe1_02]
57 379.707825 0.194073 0.000477 -0.000340 -33.010059 0.006989 379.707855
58 379.707825 0.194073 0.000477 -0.000340 -33.010883 0.006989 379.707855
59 379.707825 0.194073 0.000477 -0.000340 -33.011703 0.006989 379.707855
[Rear_Toe1_03]
57 500.129700 0.165701 0.000119 -0.004073 60.605103 -0.000458 500.129761
58 500.129700 0.165701 0.000119 -0.004073 60.605766 -0.000458 500.129761
59 500.129700 0.165701 0.000119 -0.004073 60.606422 -0.000458 500.129761
[Rear_Toe2_02]
57 340.494507 0.000238 -0.000954 0.001179 -79.141434 0.001179 340.494507
58 340.494507 0.000238 -0.000954 0.001179 -79.142265 0.001179 340.494507
59 340.494507 0.000238 -0.000954 0.001179 -79.143166 0.001179 340.494507
[Rear_Toe2_03]
57 433.103577 0.000000 0.000238 0.031998 85.796021 0.031998 433.103546
58 433.103577 0.000000 0.000238 0.032004 85.796906 0.032004 433.103546
59 433.103577 0.000000 0.000238 0.032010 85.797653 0.032010 433.103546
[Rear_Toe3_02]
57 340.494141 -0.000358 -0.000477 -0.002471 -50.142654 -0.002471 340.494171
58 340.494141 -0.000358 -0.000477 -0.002471 -50.143467 -0.002471 340.494171
59 340.494141 -0.000358 -0.000477 -0.002471 -50.144291 -0.002471 340.494171
[Rear_Toe3_03]
57 433.103577 0.001431 -0.000238 0.000410 44.492786 -0.003382 433.103546
58 433.103577 0.001431 -0.000238 0.000410 44.493702 -0.003382 433.103546
59 433.103577 0.001431 -0.000238 0.000410 44.494614 -0.003382 433.103546
[Back_Bone]
57 1312.175781 -701.934692 0.000954 -3.395098 0.999257 -84.612206 1488.125488
58 1312.175781 -701.934692 0.000954 -5.136021 0.752380 -83.447571 1488.125488
59 1312.175781 -701.934692 0.000954 -6.283080 0.545412 -82.673325 1488.125488
[Head]
57 1406.159424 809.709290 0.001431 2.484564 14.688245 31.784494 1622.625488
58 1406.159424 809.709290 0.001431 2.921362 14.570564 33.544785 1622.625488
59 1406.159424 809.709290 0.001431 3.477380 14.430532 35.775368 1622.625488
[Motor_Bone]
57 1158.364380 -417.834747 0.000477 0.123506 5.663866 -105.051620 1231.419434
58 1158.364380 -417.834747 0.000477 0.117682 5.564948 -105.149841 1231.419434
59 1158.364380 -417.834747 0.000477 0.112029 5.466019 -105.248047 1231.419434
[Ping_Mechanism]
57 1207.752808 -428.298553 54.426678 0.000103 -0.000053 82.120995 1282.602295
58 1208.209595 -430.303619 54.793774 0.000103 -0.000053 82.120995 1283.718872
59 1208.400146 -430.632721 54.832378 0.000103 -0.000053 82.120995 1284.010132
[BN_LookIK]
57 193.241119 1380.371704 -0.002861 0.000000 89.965736 -31.038179 1393.832153
58 193.241119 1380.371704 -0.002861 0.000000 89.965736 -31.038179 1393.832153
59 193.241119 1380.371704 -0.002861 0.000000 89.965736 -31.038179 1393.832153
[bottomMouth]
57 -435.092926 615.759399 -0.000954 -0.000022 0.000016 73.527184 753.966492
58 -435.092926 615.759399 -0.000954 -0.000022 0.000016 73.527184 753.966492
59 -435.092926 615.759399 -0.000954 -0.000022 0.000016 73.527184 753.966492
[L_Mouth01]
57 554.440979 7.658243 838.222046 150.204178 23.759130 109.605339 1005.027161
58 554.440979 7.658243 838.222046 150.204178 23.759130 109.605339 1005.027161
59 554.440979 7.658243 838.222046 150.204178 23.759130 109.605339 1005.027161
[L_mouthFront]
57 551.629089 934.514771 339.150421 0.000081 2.804060 79.119301 1136.941284
58 551.629089 934.514771 339.150421 0.000081 2.804060 79.119301 1136.941284
59 551.629089 934.514771 339.150421 0.000081 2.804060 79.119301 1136.941284
[mouthGun]
57 55.332661 1627.420898 0.000000 0.000023 0.000009 -11.038128 1628.361328
58 55.332661 1627.420898 0.000000 0.000023 0.000009 -11.038128 1628.361328
59 55.332661 1627.420898 0.000000 0.000023 0.000009 -11.038128 1628.361328
[R_Mouth01]
57 554.442383 7.659197 -838.223938 29.795891 -23.759109 109.605331 1005.029541
58 554.442383 7.659197 -838.223938 29.795891 -23.759109 109.605331 1005.029541
59 554.442383 7.659197 -838.223938 29.795891 -23.759109 109.605331 1005.029541
[R_mouthFront]
57 551.629089 934.514282 -339.151367 0.000029 -2.803930 79.119133 1136.941162
58 551.629089 934.514282 -339.151367 0.000029 -2.803930 79.119133 1136.941162
59 551.629089 934.514282 -339.151367 0.000029 -2.803930 79.119133 1136.941162
[TopMouth]
57 461.269867 -56.106091 -0.008583 -0.000059 -0.000268 92.025169 464.669525
58 461.269867 -56.106091 -0.008583 -0.000059 -0.000268 92.025169 464.669525
59 461.269867 -56.106091 -0.008583 -0.000059 -0.000268 92.025169 464.669525
[weapon_bone]
57 -987.239868 1448.372803 0.001431 0.000000 89.965736 -31.038221 1752.833740
58 -987.239868 1448.372803 0.001431 0.000000 89.965736 -31.038221 1752.833740
59 -987.239868 1448.372803 0.001431 0.000000 89.965736 -31.038221 1752.833740
